<svg width="709" height="199" viewBox="0 0 709 199" fill="none" xmlns="http://www.w3.org/2000/svg">
<path d="M209.59 118.06C206.79 112.37 203.67 107.72 200.25 104.11C196.28 99.78 191.76 96.26 186.71 93.55C190.68 91.21 194.3 88.32 197.54 84.88C200.25 81.81 202.73 78.02 204.99 73.5C207.24 68.99 208.38 63.49 208.38 56.98C208.38 49.58 207.02 42.68 204.31 36.27C201.61 29.86 197.85 24.26 193.07 19.48C188.28 14.7 182.69 10.95 176.28 8.23999C169.86 5.53999 162.96 4.17999 155.56 4.17999H94.66C100.51 7.25999 105.8 11.09 110.43 15.61C115.52 20.58 119.76 26.3 123.07 32.69V29.91H155.57C163.7 29.91 170.23 32.39 175.2 37.35C180.17 42.32 182.65 48.86 182.65 56.98C182.65 65.11 180.17 71.66 175.2 76.62C170.23 81.59 163.7 84.06 155.57 84.06H130.72V108.43H158.28C167.12 108.43 174.3 111.19 179.81 116.69C185.31 122.2 188.07 129.38 188.07 138.22C188.07 147.07 185.31 154.24 179.81 159.75C174.3 165.26 167.12 168.01 158.28 168.01H123.07V165.23C119.76 171.62 115.52 177.34 110.43 182.31C105.8 186.83 100.52 190.66 94.66 193.74H158.28C166.04 193.74 173.3 192.3 180.07 189.41C186.84 186.53 192.71 182.59 197.67 177.63C202.64 172.66 206.56 166.79 209.46 160.02C212.34 153.26 213.79 145.99 213.79 138.23C213.8 130.47 212.39 123.75 209.59 118.06Z" fill="#D8D8D8"/>
<path d="M122.72 64.64V133.29C122.72 141.92 121.14 149.93 117.99 157.32C114.83 164.72 110.45 171.14 104.86 176.6C99.26 182.05 92.67 186.32 85.09 189.4C82.06 190.63 78.93 191.62 75.69 192.35C70.83 193.46 65.75 194.02 60.44 194.02C50.15 194.02 41.53 192.24 34.58 188.68C27.63 185.11 21.9 181.1 17.39 176.64C12.34 171.66 8.17999 165.86 4.92999 159.27L26.6 146.36C28.4 150.66 30.84 154.36 33.91 157.46C36.43 160.22 39.91 162.71 44.33 164.94C48.76 167.18 54.13 168.29 60.44 168.29C65.49 168.29 70.24 167.38 74.66 165.55C79.09 163.72 82.97 161.19 86.3 157.96C89.65 154.73 92.26 150.99 94.16 146.71C96.05 142.43 97 137.85 97 132.97V64.96C97 60.08 96.05 55.5 94.16 51.23C92.26 46.95 89.65 43.21 86.3 39.98C82.96 36.75 79.08 34.23 74.66 32.39C70.24 30.56 65.5 29.64 60.44 29.64C54.12 29.64 48.76 30.9 44.33 33.42C39.91 35.94 36.43 38.69 33.91 41.68C30.84 45.04 28.4 48.96 26.6 53.43L4.92999 40.53C8.17999 33.77 12.34 27.67 17.39 22.22C21.9 17.72 27.63 13.55 34.58 9.69C41.53 5.84 50.15 3.91 60.44 3.91C65.75 3.91 70.83 4.47 75.69 5.59C78.93 6.32 82.05 7.31 85.09 8.54C92.67 11.62 99.27 15.89 104.86 21.34C110.46 26.8 114.84 33.23 117.99 40.62C121.15 48.01 122.72 56.02 122.72 64.64Z" fill="#DA0037"/>
<path d="M29.75 77.78L93.61 94.72L29.75 53.78V77.78Z" fill="#D8D8D8"/>
<path d="M7.16 131.49L25.74 144.49V122.38L7.16 131.49Z" fill="#D8D8D8"/>
<path d="M7.16 66.98L25.74 76.08V53.97L7.16 66.98Z" fill="#D8D8D8"/>
<path d="M29.75 120.68V144.68L93.61 103.74L29.75 120.68Z" fill="#D8D8D8"/>
<path d="M5.69 95.17L24.49 79.37L5.69 70.16V95.17Z" fill="#DA0037"/>
<path d="M5.69 128.31L24.49 119.1L5.69 103.3V128.31Z" fill="#DA0037"/>
<path d="M29.75 117.15L97.29 99.23L29.75 81.32V117.15Z" fill="#DA0037"/>
<path d="M6.51999 99.23L25.74 115.38V83.08L6.51999 99.23Z" fill="#D8D8D8"/>
<path d="M252.67 125.21H230.54V108.79H244.37V20.61H230.54V4.19H281.54C286.26 4.19 290.67 5.05 294.77 6.78C298.86 8.51 302.43 10.9 305.49 13.96C308.54 17.02 310.94 20.59 312.66 24.68C314.39 28.77 315.25 33.18 315.25 37.91C315.25 42.06 314.53 45.58 313.09 48.46C311.65 51.34 310.06 53.76 308.34 55.72C306.27 57.91 303.96 59.76 301.42 61.25C304.65 62.98 307.53 65.23 310.06 67.99C312.25 70.3 314.24 73.26 316.02 76.89C317.81 80.52 318.7 84.82 318.7 89.77C318.7 94.73 317.78 99.37 315.93 103.69C314.08 108.01 311.58 111.76 308.41 114.93C305.24 118.1 301.49 120.61 297.17 122.45C292.85 124.29 288.21 125.22 283.25 125.22H252.67V125.21ZM260.79 55.19H281.54C286.73 55.19 290.9 53.61 294.07 50.44C297.24 47.27 298.82 43.09 298.82 37.91C298.82 32.73 297.23 28.55 294.07 25.38C290.9 22.21 286.72 20.63 281.54 20.63H260.79V55.19ZM260.79 108.79H283.27C288.92 108.79 293.5 107.03 297.02 103.52C300.53 100.01 302.29 95.42 302.29 89.77C302.29 84.12 300.53 79.54 297.02 76.03C293.5 72.52 288.92 70.76 283.27 70.76H260.79V108.79Z" fill="#DA0037"/>
<path d="M327.35 125.21L365.39 4.19H382.68L420.72 125.21H403.43L393.92 95.82H354.15L344.64 125.21H327.35ZM358.48 80.26H389.6L374.04 30.99L358.48 80.26Z" fill="#DA0037"/>
<path d="M543.47 108.79V125.21H513.21V30.98L491.6 73.34H474.31L452.7 30.98V125.21H436.28V4.19H456.16L482.96 56.06L509.76 4.19H529.64V108.79H543.47V108.79Z" fill="#DA0037"/>
<path d="M621.27 108.79V125.21H543.47L596.2 20.61H546.93V4.19H623L570.27 108.79H621.27V108.79Z" fill="#DA0037"/>
<path d="M699.07 108.79V125.21H621.27L674 20.61H624.73V4.19H700.8L648.07 108.79H699.07V108.79Z" fill="#DA0037"/>
<path d="M230.8 177.07C230.8 175.11 231.16 173.16 231.88 171.25C232.6 169.33 233.65 167.62 235.04 166.11C236.42 164.6 238.11 163.38 240.11 162.44C242.11 161.5 244.38 161.03 246.93 161.03C249.94 161.03 252.54 161.68 254.74 162.98C256.94 164.28 258.57 165.97 259.65 168.06L254.76 171.37C254.33 170.46 253.81 169.7 253.19 169.08C252.58 168.46 251.92 167.97 251.21 167.61C250.5 167.25 249.77 166.98 249 166.82C248.23 166.65 247.48 166.57 246.74 166.57C245.14 166.57 243.75 166.89 242.57 167.52C241.39 168.15 240.4 168.98 239.62 169.99C238.84 171 238.24 172.15 237.85 173.43C237.45 174.71 237.25 175.99 237.25 177.26C237.25 178.68 237.48 180.05 237.94 181.36C238.4 182.67 239.05 183.83 239.9 184.83C240.74 185.83 241.76 186.63 242.94 187.23C244.12 187.83 245.42 188.14 246.83 188.14C247.57 188.14 248.34 188.05 249.13 187.87C249.93 187.69 250.69 187.4 251.41 187.01C252.13 186.62 252.8 186.11 253.41 185.49C254.02 184.87 254.52 184.12 254.89 183.25L260.1 186.2C259.58 187.41 258.83 188.47 257.86 189.4C256.89 190.32 255.8 191.1 254.59 191.73C253.38 192.36 252.08 192.85 250.7 193.18C249.32 193.51 247.96 193.68 246.64 193.68C244.3 193.68 242.17 193.2 240.23 192.23C238.29 191.26 236.63 190 235.23 188.45C233.83 186.89 232.74 185.13 231.96 183.15C231.19 181.14 230.8 179.12 230.8 177.07Z" fill="#D8D8D8"/>
<path d="M292.97 193.39V161.2H307.44C308.94 161.2 310.34 161.51 311.61 162.13C312.88 162.75 313.98 163.57 314.91 164.58C315.83 165.59 316.55 166.74 317.08 168.03C317.6 169.31 317.86 170.61 317.86 171.91C317.86 173.99 317.33 175.89 316.27 177.6C315.21 179.31 313.77 180.54 311.96 181.29L319.43 193.39H312.29L305.61 182.6H299.34V193.39H292.97V193.39ZM299.33 177.11H307.3C307.88 177.11 308.43 176.97 308.94 176.7C309.45 176.43 309.88 176.06 310.25 175.59C310.62 175.12 310.91 174.57 311.13 173.94C311.34 173.31 311.45 172.63 311.45 171.9C311.45 171.15 311.33 170.45 311.08 169.82C310.83 169.19 310.5 168.63 310.09 168.17C309.68 167.7 309.2 167.34 308.66 167.08C308.12 166.82 307.58 166.7 307.02 166.7H299.32V177.11H299.33Z" fill="#D8D8D8"/>
<path d="M374.91 187.9V193.38H352.19V161.2H374.5V166.68H358.55V174.43H372.33V179.51H358.55V187.89H374.91V187.9Z" fill="#D8D8D8"/>
<path d="M417.77 161.2H423.39L435.83 193.38H429.29L426.25 185.36H414.82L411.82 193.38H405.28L417.77 161.2ZM425.1 180.97L420.58 168.32L415.88 180.97H425.1Z" fill="#D8D8D8"/>
<path d="M489.25 166.69H478.79V193.39H472.48V166.69H462.02V161.21H489.26V166.69H489.25Z" fill="#D8D8D8"/>
<path d="M521.88 193.39V161.2H528.24V193.38H521.88V193.39Z" fill="#D8D8D8"/>
<path d="M567 161.2L575.85 185.54L584.61 161.2H591.29L578.52 193.38H573.17L560.31 161.2H567Z" fill="#D8D8D8"/>
<path d="M646.09 187.9V193.38H623.37V161.2H645.68V166.68H629.73V174.43H643.51V179.51H629.73V187.89H646.09V187.9Z" fill="#D8D8D8"/>
<path d="M698.44 169.63C698.23 169.42 697.83 169.13 697.27 168.77C696.7 168.41 696.01 168.05 695.2 167.7C694.39 167.35 693.5 167.06 692.55 166.82C691.6 166.58 690.63 166.46 689.65 166.46C687.9 166.46 686.59 166.78 685.73 167.41C684.87 168.04 684.44 168.94 684.44 170.08C684.44 170.75 684.6 171.3 684.92 171.73C685.24 172.17 685.71 172.55 686.33 172.89C686.94 173.22 687.72 173.52 688.66 173.8C689.6 174.07 690.68 174.36 691.91 174.66C693.51 175.08 694.96 175.54 696.27 176.02C697.58 176.5 698.68 177.11 699.59 177.83C700.5 178.56 701.19 179.42 701.69 180.44C702.18 181.45 702.43 182.7 702.43 184.18C702.43 185.9 702.1 187.38 701.44 188.6C700.78 189.82 699.89 190.81 698.77 191.57C697.65 192.33 696.36 192.88 694.9 193.23C693.44 193.58 691.91 193.75 690.31 193.75C687.85 193.75 685.42 193.39 683.03 192.66C680.63 191.94 678.48 190.91 676.58 189.58L679.39 184.19C679.67 184.46 680.17 184.82 680.89 185.26C681.61 185.7 682.46 186.14 683.45 186.57C684.43 187.01 685.52 187.38 686.72 187.68C687.92 187.98 689.15 188.13 690.41 188.13C693.91 188.13 695.66 187.03 695.66 184.82C695.66 184.12 695.46 183.54 695.06 183.05C694.66 182.57 694.09 182.14 693.36 181.78C692.62 181.42 691.73 181.09 690.69 180.78C689.64 180.48 688.48 180.15 687.19 179.78C685.62 179.36 684.26 178.9 683.11 178.4C681.96 177.9 681 177.31 680.23 176.63C679.46 175.95 678.89 175.17 678.5 174.27C678.11 173.37 677.92 172.31 677.92 171.07C677.92 169.44 678.23 167.99 678.84 166.72C679.45 165.45 680.31 164.39 681.4 163.55C682.49 162.7 683.76 162.06 685.2 161.62C686.64 161.18 688.2 160.96 689.86 160.96C692.16 160.96 694.28 161.32 696.22 162.03C698.16 162.74 699.85 163.58 701.29 164.55L698.44 169.63Z" fill="#D8D8D8"/>
<path d="M450.13 142.55C450.13 144.3 450.44 145.99 451.01 147.55H230.8V138.55H450.69C450.32 139.82 450.13 141.16 450.13 142.55Z" fill="#D8D8D8"/>
<path d="M472.86 138.55C473.46 139.75 473.8 141.12 473.8 142.55C473.8 144.4 473.24 146.12 472.28 147.55H457.32C456.36 146.12 455.8 144.4 455.8 142.55C455.8 141.12 456.14 139.75 456.74 138.55H472.86Z" fill="black"/>
<path d="M699.8 138.55V147.55H478.58C479.15 145.99 479.46 144.3 479.46 142.55C479.46 141.16 479.27 139.82 478.9 138.55H699.8Z" fill="#D8D8D8"/>
<path d="M473.8 142.55C473.8 144.4 473.24 146.12 472.28 147.55C470.67 149.96 467.92 151.55 464.8 151.55C461.68 151.55 458.93 149.96 457.32 147.55C456.36 146.12 455.8 144.4 455.8 142.55C455.8 141.12 456.14 139.75 456.74 138.55C458.21 135.59 461.27 133.55 464.8 133.55C468.33 133.55 471.39 135.59 472.86 138.55C473.45 139.75 473.8 141.12 473.8 142.55Z" fill="#D8D8D8"/>
</svg>
